<svg width="72" height="72" viewBox="0 0 72 72" fill="none" xmlns="http://www.w3.org/2000/svg">
<path d="M16.9613 63L6.57678 34.269L20.8845 25.731V9H26.8845V25.731L41.1923 34.269L30.8078 63H16.9613ZM49.6155 63C49.1905 63 48.8343 62.856 48.5468 62.568C48.2593 62.28 48.1155 61.9232 48.1155 61.4977C48.1155 61.0723 48.2593 60.7163 48.5468 60.4298C48.8343 60.1432 49.1905 60 49.6155 60H60.1155V51.6922H49.6155C49.1905 51.6922 48.8343 51.5482 48.5468 51.2603C48.2593 50.9727 48.1155 50.616 48.1155 50.19C48.1155 49.7645 48.2593 49.4085 48.5468 49.122C48.8343 48.8355 49.1905 48.6922 49.6155 48.6922H60.1155V40.3845H49.6155C49.1905 40.3845 48.8343 40.2405 48.5468 39.9525C48.2593 39.665 48.1155 39.3083 48.1155 38.8822C48.1155 38.4568 48.2593 38.1008 48.5468 37.8143C48.8343 37.5278 49.1905 37.3845 49.6155 37.3845H60.1155V29.0768H49.6155C49.1905 29.0768 48.8343 28.9328 48.5468 28.6448C48.2593 28.3573 48.1155 28.0007 48.1155 27.5752C48.1155 27.1493 48.2593 26.793 48.5468 26.5065C48.8343 26.22 49.1905 26.0768 49.6155 26.0768H60.1155V17.769H49.6155C49.1905 17.769 48.8343 17.6252 48.5468 17.3377C48.2593 17.0497 48.1155 16.693 48.1155 16.2675C48.1155 15.8415 48.2593 15.4853 48.5468 15.1988C48.8343 14.9123 49.1905 14.769 49.6155 14.769H60.5768C61.9578 14.769 63.1108 15.2315 64.0358 16.1565C64.9608 17.0815 65.4233 18.2345 65.4233 19.6155V58.1535C65.4233 59.5345 64.9608 60.6875 64.0358 61.6125C63.1108 62.5375 61.9578 63 60.5768 63H49.6155ZM19.0845 60H28.6845L37.5345 35.55L26.5035 28.9613H21.2655L10.2345 35.55L19.0845 60Z" fill="#D01F25"/>
</svg>
