<svg width="72" height="72" viewBox="0 0 72 72" fill="none" xmlns="http://www.w3.org/2000/svg">
<path d="M20.9999 27.831L15.6344 30.8078C15.0499 31.1308 14.4729 31.221 13.9034 31.0785C13.3344 30.9365 12.8884 30.5732 12.5654 29.9887L8.87317 23.5268C8.55017 22.9423 8.45967 22.3557 8.60167 21.7672C8.74417 21.1787 9.10767 20.723 9.69217 20.4L23.9422 12H27.5767C28.1422 12 28.5912 12.1663 28.9237 12.4988C29.2567 12.8318 29.4232 13.281 29.4232 13.8465V14.4232C29.4232 16.1888 30.0779 17.7263 31.3874 19.0357C32.6969 20.3453 34.2344 21 35.9999 21C37.7654 21 39.3029 20.3453 40.6124 19.0357C41.9219 17.7263 42.5767 16.1888 42.5767 14.4232V13.8465C42.5767 13.281 42.7432 12.8318 43.0762 12.4988C43.4087 12.1663 43.8577 12 44.4232 12H48.0577L62.3077 20.4C62.8922 20.723 63.2557 21.1787 63.3982 21.7672C63.5402 22.3557 63.4497 22.9423 63.1267 23.5268L59.4344 29.9887C59.1114 30.5732 58.6682 30.9338 58.1047 31.0703C57.5412 31.2068 56.9614 31.1135 56.3654 30.7905L50.9999 27.8483V57.6922C50.9999 58.3498 50.7797 58.8988 50.3392 59.3393C49.8987 59.7798 49.3497 60 48.6922 60H23.3077C22.6502 60 22.1012 59.7798 21.6607 59.3393C21.2202 58.8988 20.9999 58.3498 20.9999 57.6922V27.831ZM23.9999 22.8V57H47.9999V22.8L57.1844 27.8422L60.2189 22.65L47.3767 15.0345H45.4732C45.3002 17.546 44.3204 19.6682 42.5339 21.4012C40.7469 23.1337 38.5689 24 35.9999 24C33.4309 24 31.2529 23.1337 29.4659 21.4012C27.6794 19.6682 26.6997 17.546 26.5267 15.0345H24.6232L11.7809 22.65L14.8154 27.8422L23.9999 22.8Z" fill="#D01F25"/>
</svg>
