<svg width="50" height="50" viewBox="0 0 50 50" fill="none" xmlns="http://www.w3.org/2000/svg">
<path d="M39.4957 41.6667L27.929 30.1L30.1405 27.8885L41.7072 39.4552L39.4957 41.6667ZM10.5452 41.6667L8.33372 39.4552L22.829 24.9599L16.6431 18.8141L15.5051 19.9521L13.5301 17.9365V21.6865L12.3921 22.8245L6.93164 17.3635L8.06914 16.226H11.8191L9.81602 14.263L14.3275 9.75156C14.808 9.27065 15.3341 8.91406 15.9056 8.68177C16.4775 8.44947 17.0865 8.33333 17.7327 8.33333C18.3792 8.33333 18.9882 8.44947 19.5598 8.68177C20.1313 8.91406 20.6575 9.27065 21.1384 9.75156L17.7087 13.1812L19.9926 15.4646L18.8546 16.6026L25.0405 22.7484L30.3691 17.4198C30.0431 16.9576 29.8167 16.4849 29.69 16.0016C29.5629 15.5182 29.4993 14.988 29.4993 14.4109C29.4993 12.7095 30.0891 11.2693 31.2686 10.0901C32.4478 8.91093 33.8881 8.32135 35.5895 8.32135C35.9499 8.32135 36.2978 8.3467 36.6332 8.39739C36.9683 8.44808 37.2987 8.55086 37.6243 8.70573L33.3098 13.0208L36.9796 16.6906L41.2947 12.376C41.4575 12.7017 41.5622 13.0321 41.6087 13.3672C41.6556 13.7026 41.679 14.0505 41.679 14.4109C41.679 16.1123 41.0895 17.5526 39.9103 18.7318C38.7311 19.9113 37.2908 20.501 35.5895 20.501C35.0124 20.501 34.4822 20.4396 33.9988 20.3167C33.5155 20.1937 33.0427 19.9653 32.5806 19.6312L10.5452 41.6667Z" fill="white"/>
</svg>
