<svg width="72" height="72" viewBox="0 0 72 72" fill="none" xmlns="http://www.w3.org/2000/svg">
<path d="M56.8732 60.0002L40.2172 43.3442L43.4017 40.1597L60.0577 56.8157L56.8732 60.0002ZM15.1845 60.0002L12 56.8157L32.8732 35.9424L23.9655 27.0924L22.3267 28.7312L19.4827 25.8287V31.2287L17.844 32.8674L9.98096 25.0037L11.619 23.3657H17.019L14.1345 20.5389L20.631 14.0424C21.323 13.3499 22.0805 12.8364 22.9035 12.5019C23.727 12.1674 24.604 12.0002 25.5345 12.0002C26.4655 12.0002 27.3425 12.1674 28.1655 12.5019C28.9885 12.8364 29.7462 13.3499 30.4387 14.0424L25.5 18.9812L28.7887 22.2692L27.15 23.9079L36.0577 32.7579L43.731 25.0847C43.2615 24.4192 42.9355 23.7384 42.753 23.0424C42.57 22.3464 42.4785 21.5829 42.4785 20.7519C42.4785 18.3019 43.3277 16.2279 45.0262 14.5299C46.7242 12.8319 48.7982 11.9829 51.2482 11.9829C51.7672 11.9829 52.2682 12.0194 52.7512 12.0924C53.2337 12.1654 53.7095 12.3134 54.1785 12.5364L47.9655 18.7502L53.25 24.0347L59.4637 17.8217C59.6982 18.2907 59.849 18.7664 59.916 19.2489C59.9835 19.7319 60.0172 20.2329 60.0172 20.7519C60.0172 23.2019 59.1682 25.2759 57.4702 26.9739C55.7722 28.6724 53.6982 29.5217 51.2482 29.5217C50.4172 29.5217 49.6537 29.4332 48.9577 29.2562C48.2617 29.0792 47.581 28.7502 46.9155 28.2692L15.1845 60.0002Z" fill="#D01F25"/>
</svg>
