<svg width="32" height="32" viewBox="0 0 32 32" fill="none" xmlns="http://www.w3.org/2000/svg">
<path d="M6.75892 26.6663C6.35892 26.6663 6.02125 26.533 5.74592 26.2663C5.47081 25.9997 5.33325 25.6663 5.33325 25.2663V22.0203C5.33325 21.663 5.44603 21.3463 5.67159 21.0703C5.89736 20.7941 6.19147 20.6116 6.55392 20.5227L9.35892 19.9483C9.68714 19.9039 9.9867 19.9189 10.2576 19.9933C10.5285 20.0676 10.7725 20.2218 10.9896 20.456L13.8409 23.3587C14.9076 22.7671 15.887 22.1385 16.7793 21.4727C17.6717 20.8069 18.505 20.0868 19.2793 19.3123C20.0297 18.5501 20.7361 17.7429 21.3986 16.8907C22.061 16.0385 22.6657 15.1158 23.2126 14.1227L20.2873 11.3947C20.0753 11.2169 19.9274 10.9887 19.8436 10.71C19.7598 10.4313 19.7487 10.1057 19.8103 9.73301L20.4716 6.55367C20.5674 6.19634 20.7504 5.90356 21.0206 5.67534C21.2906 5.44712 21.6068 5.33301 21.9693 5.33301H25.2666C25.6666 5.33301 25.9999 5.47056 26.2666 5.74567C26.5333 6.02101 26.6666 6.35868 26.6666 6.75868C26.6666 9.00645 26.1038 11.3065 24.9783 13.6587C23.8525 16.0109 22.281 18.204 20.2639 20.238C18.2297 22.2722 16.0323 23.8522 13.6716 24.978C11.3109 26.1036 9.0067 26.6663 6.75892 26.6663Z" fill="#D01F25"/>
</svg>
