<svg width="32" height="32" viewBox="0 0 32 32" fill="none" xmlns="http://www.w3.org/2000/svg">
<path d="M6.154 25.3337C5.54022 25.3337 5.02778 25.1281 4.61667 24.717C4.20556 24.3059 4 23.7934 4 23.1797V8.82099C4 8.20721 4.20556 7.69477 4.61667 7.28366C5.02778 6.87255 5.54022 6.66699 6.154 6.66699H25.846C26.4598 6.66699 26.9722 6.87255 27.3833 7.28366C27.7944 7.69477 28 8.20721 28 8.82099V23.1797C28 23.7934 27.7944 24.3059 27.3833 24.717C26.9722 25.1281 26.4598 25.3337 25.846 25.3337H6.154ZM16 16.1543L26.6667 9.17966L26.2563 8.00033L16 14.667L5.74367 8.00033L5.33333 9.17966L16 16.1543Z" fill="#D01F25"/>
</svg>
