<svg width="72" height="72" viewBox="0 0 72 72" fill="none" xmlns="http://www.w3.org/2000/svg">
<path d="M40.1655 52.1421C38.927 50.9036 38.3078 49.4074 38.3078 47.6534C38.3078 45.8999 38.927 44.4039 40.1655 43.1654C41.404 41.9269 42.9 41.3076 44.6535 41.3076C46.4075 41.3076 47.9038 41.9269 49.1423 43.1654C50.3807 44.4039 51 45.8999 51 47.6534C51 49.4074 50.3807 50.9036 49.1423 52.1421C47.9038 53.3806 46.4075 53.9999 44.6535 53.9999C42.9 53.9999 41.404 53.3806 40.1655 52.1421ZM16.8465 62.9999C15.4655 62.9999 14.3125 62.5374 13.3875 61.6124C12.4625 60.6874 12 59.5344 12 58.1534V19.8464C12 18.4654 12.4625 17.3124 13.3875 16.3874C14.3125 15.4624 15.4655 14.9999 16.8465 14.9999H22.1535V8.30762H25.3845V14.9999H46.8465V8.30762H49.8465V14.9999H55.1535C56.5345 14.9999 57.6875 15.4624 58.6125 16.3874C59.5375 17.3124 60 18.4654 60 19.8464V58.1534C60 59.5344 59.5375 60.6874 58.6125 61.6124C57.6875 62.5374 56.5345 62.9999 55.1535 62.9999H16.8465ZM16.8465 59.9999H55.1535C55.6155 59.9999 56.0387 59.8076 56.4233 59.4231C56.8078 59.0386 57 58.6154 57 58.1534V31.8464H15V58.1534C15 58.6154 15.1923 59.0386 15.5768 59.4231C15.9613 59.8076 16.3845 59.9999 16.8465 59.9999ZM15 28.8456H57V19.8464C57 19.3844 56.8078 18.9611 56.4233 18.5766C56.0387 18.1921 55.6155 17.9999 55.1535 17.9999H16.8465C16.3845 17.9999 15.9613 18.1921 15.5768 18.5766C15.1923 18.9611 15 19.3844 15 19.8464V28.8456Z" fill="#D01F25"/>
</svg>
