<svg width="50" height="50" viewBox="0 0 50 50" fill="none" xmlns="http://www.w3.org/2000/svg">
<path d="M10.417 41.6667V39.5833H39.5837V41.6667H10.417ZM16.9472 33.8141C15.1364 33.8141 13.5955 33.1984 12.3243 31.9672C11.0528 30.7359 10.417 29.2415 10.417 27.4838V8.33333H40.2248C41.1942 8.33333 42.0243 8.66111 42.7149 9.31666C43.4052 9.97256 43.7503 10.7799 43.7503 11.7385V16.3865C43.7503 17.3451 43.4052 18.1524 42.7149 18.8083C42.0243 19.4639 41.1942 19.7917 40.2248 19.7917H36.0581V27.4838C36.0581 29.2415 35.4224 30.7359 34.1508 31.9672C32.8797 33.1984 31.3385 33.8141 29.5274 33.8141H16.9472ZM16.9472 10.4167H33.9748H12.5003H16.9472ZM36.0581 17.7083H40.2248C40.6255 17.7083 40.9659 17.5814 41.2462 17.3276C41.5267 17.0738 41.667 16.7601 41.667 16.3865V11.7385C41.667 11.3649 41.5267 11.0512 41.2462 10.7974C40.9659 10.5436 40.6255 10.4167 40.2248 10.4167H36.0581V17.7083ZM29.5274 31.7307C30.7503 31.7307 31.7974 31.3134 32.6686 30.4786C33.5394 29.6439 33.9748 28.6403 33.9748 27.4677V10.4167H20.593V12.8526L23.7826 15.4729C23.8521 15.5424 23.9909 15.8201 24.1993 16.3062V22.5963C24.1993 22.8741 24.0951 23.1172 23.8868 23.3255C23.6784 23.5338 23.4354 23.638 23.1576 23.638H16.4264C16.1486 23.638 15.9055 23.5338 15.6972 23.3255C15.4889 23.1172 15.3847 22.8741 15.3847 22.5963V16.3062C15.3847 16.2368 15.5236 15.959 15.8014 15.4729L18.991 12.8526V10.4167H12.5003V27.4677C12.5003 28.6403 12.9357 29.6439 13.8066 30.4786C14.6774 31.3134 15.7243 31.7307 16.9472 31.7307H29.5274Z" fill="white"/>
</svg>
