<svg width="72" height="72" viewBox="0 0 72 72" fill="none" xmlns="http://www.w3.org/2000/svg">
<path d="M15 60V57H57V60H15ZM24.4035 48.6923C21.796 48.6923 19.577 47.8058 17.7465 46.0327C15.9155 44.2598 15 42.1078 15 39.5768V12H57.9233C59.3193 12 60.5145 12.472 61.509 13.416C62.503 14.3605 63 15.523 63 16.9035V23.5965C63 24.977 62.503 26.1395 61.509 27.084C60.5145 28.028 59.3193 28.5 57.9233 28.5H51.9233V39.5768C51.9233 42.1078 51.0078 44.2598 49.1768 46.0327C47.3463 47.8058 45.127 48.6923 42.519 48.6923H24.4035ZM24.4035 15H48.9233H18H24.4035ZM51.9233 25.5H57.9233C58.5003 25.5 58.9905 25.3173 59.394 24.9518C59.798 24.5863 60 24.1345 60 23.5965V16.9035C60 16.3655 59.798 15.9137 59.394 15.5482C58.9905 15.1827 58.5003 15 57.9233 15H51.9233V25.5ZM42.519 45.6923C44.28 45.6923 45.7878 45.0913 47.0423 43.8893C48.2962 42.6873 48.9233 41.242 48.9233 39.5535V15H29.6535V18.5078L34.2465 22.281C34.3465 22.381 34.5465 22.781 34.8465 23.481V32.5387C34.8465 32.9387 34.6965 33.2887 34.3965 33.5887C34.0965 33.8887 33.7465 34.0388 33.3465 34.0388H23.6535C23.2535 34.0388 22.9035 33.8887 22.6035 33.5887C22.3035 33.2887 22.1535 32.9387 22.1535 32.5387V23.481C22.1535 23.381 22.3535 22.981 22.7535 22.281L27.3465 18.5078V15H18V39.5535C18 41.242 18.627 42.6873 19.881 43.8893C21.135 45.0913 22.6425 45.6923 24.4035 45.6923H42.519Z" fill="#D01F25"/>
</svg>
