<svg width="50" height="50" viewBox="0 0 50 50" fill="none" xmlns="http://www.w3.org/2000/svg">
<path d="M22.916 31.25H27.0827V26.0417H32.291V21.875H27.0827V16.6667H22.916V21.875H17.7077V26.0417H22.916V31.25ZM24.9993 43.6698C20.8139 42.4278 17.337 39.8924 14.5686 36.0635C11.8002 32.2347 10.416 27.9219 10.416 23.125V11.8589L24.9993 6.41042L39.5827 11.8589V23.125C39.5827 27.9219 38.1985 32.2347 35.4301 36.0635C32.6617 39.8924 29.1848 42.4278 24.9993 43.6698ZM24.9993 41.4583C28.6105 40.3125 31.5966 38.0208 33.9577 34.5833C36.3188 31.1458 37.4993 27.3264 37.4993 23.125V13.2812L24.9993 8.63385L12.4993 13.2812V23.125C12.4993 27.3264 13.6799 31.1458 16.041 34.5833C18.4021 38.0208 21.3882 40.3125 24.9993 41.4583Z" fill="white"/>
</svg>
