<svg width="72" height="72" viewBox="0 0 72 72" fill="none" xmlns="http://www.w3.org/2000/svg">
<path d="M33 45H39V37.5H46.5V31.5H39V24H33V31.5H25.5V37.5H33V45ZM36 62.8845C29.973 61.096 24.9663 57.445 20.9798 51.9315C16.9933 46.418 15 40.2075 15 33.3V17.0767L36 9.23096L57 17.0767V33.3C57 40.2075 55.0068 46.418 51.0203 51.9315C47.0338 57.445 42.027 61.096 36 62.8845ZM36 59.7C41.2 58.05 45.5 54.75 48.9 49.8C52.3 44.85 54 39.35 54 33.3V19.125L36 12.4327L18 19.125V33.3C18 39.35 19.7 44.85 23.1 49.8C26.5 54.75 30.8 58.05 36 59.7Z" fill="#D01F25"/>
</svg>
