<svg width="72" height="72" viewBox="0 0 72 72" fill="none" xmlns="http://www.w3.org/2000/svg">
<path d="M9 54V39C9 38.1115 9.25575 37.1653 9.76725 36.1613C10.2787 35.1578 11.023 34.404 12 33.9V27C12 25.3075 12.577 23.8845 13.731 22.731C14.8845 21.577 16.3075 21 18 21H31.5C32.5345 21 33.4173 21.2125 34.1483 21.6375C34.8788 22.0625 35.496 22.65 36 23.4C36.504 22.65 37.1213 22.0625 37.8518 21.6375C38.5828 21.2125 39.4655 21 40.5 21H54C55.6925 21 57.1155 21.577 58.269 22.731C59.423 23.8845 60 25.3075 60 27V33.9C60.977 34.404 61.7213 35.1578 62.2328 36.1613C62.7443 37.1653 63 38.1115 63 39V54H60V48H12V54H9ZM37.5 33H57V27C57 26.15 56.7125 25.4375 56.1375 24.8625C55.5625 24.2875 54.85 24 54 24H40.5C39.65 24 38.9375 24.2875 38.3625 24.8625C37.7875 25.4375 37.5 26.15 37.5 27V33ZM15 33H34.5V27C34.5 26.15 34.2125 25.4375 33.6375 24.8625C33.0625 24.2875 32.35 24 31.5 24H18C17.15 24 16.4375 24.2875 15.8625 24.8625C15.2875 25.4375 15 26.15 15 27V33ZM12 45H60V39C60 38.15 59.7125 37.4375 59.1375 36.8625C58.5625 36.2875 57.85 36 57 36H15C14.15 36 13.4375 36.2875 12.8625 36.8625C12.2875 37.4375 12 38.15 12 39V45Z" fill="#D01F25"/>
</svg>
