<svg width="24" height="24" viewBox="0 0 24 24" fill="none" xmlns="http://www.w3.org/2000/svg">
<path d="M12.004 11.7308C12.4492 11.7308 12.8291 11.5723 13.1438 11.2552C13.4586 10.9383 13.616 10.5572 13.616 10.112C13.616 9.66683 13.4575 9.28683 13.1403 8.972C12.8233 8.65733 12.4422 8.5 11.997 8.5C11.5519 8.5 11.172 8.6585 10.8573 8.9755C10.5425 9.2925 10.385 9.67358 10.385 10.1188C10.385 10.5639 10.5436 10.9439 10.8608 11.2587C11.1778 11.5734 11.5589 11.7308 12.004 11.7308ZM12.0005 21.0193C9.65055 18.9411 7.88038 17.0029 6.69005 15.2048C5.49955 13.4068 4.9043 11.7706 4.9043 10.2962C4.9043 8.18075 5.59313 6.43583 6.9708 5.0615C8.3483 3.68717 10.0249 3 12.0005 3C13.9762 3 15.6528 3.68717 17.0303 5.0615C18.408 6.43583 19.0968 8.18075 19.0968 10.2962C19.0968 11.7706 18.5015 13.4068 17.311 15.2048C16.1207 17.0029 14.3505 18.9411 12.0005 21.0193Z" fill="#D01F25"/>
</svg>
