<svg width="72" height="72" viewBox="0 0 72 72" fill="none" xmlns="http://www.w3.org/2000/svg">
<path d="M28.5 63C26.3575 63 24.572 62.2855 23.1435 60.8565C21.7145 59.428 21 57.6425 21 55.5C21 54.5885 20.9567 53.825 20.8702 53.2095C20.7837 52.594 20.5693 52.1152 20.2268 51.7733C19.8848 51.4308 19.406 51.197 18.7905 51.072C18.175 50.947 17.4115 50.8845 16.5 50.8845C14.3575 50.8845 12.572 50.1893 11.1435 48.7988C9.7145 47.4088 9 45.6425 9 43.5C9 41.3575 9.7145 39.572 11.1435 38.1435C12.572 36.7145 14.3575 36 16.5 36C17.304 36 18.0655 36.102 18.7845 36.306C19.504 36.5095 20.1155 36.8153 20.619 37.2233C21.1575 37.6463 21.7825 37.8577 22.494 37.8577C23.2055 37.8577 23.8112 37.6077 24.3112 37.1077L36.8768 24.5422C37.3768 24.0422 37.6653 23.4077 37.7423 22.6387C37.8193 21.8692 37.6463 21.196 37.2233 20.619C36.8538 20.077 36.5575 19.456 36.3345 18.756C36.1115 18.056 36 17.304 36 16.5C36 14.3575 36.7145 12.572 38.1435 11.1435C39.572 9.7145 41.3575 9 43.5 9C45.6425 9 47.428 9.7145 48.8565 11.1435C50.2855 12.572 51 14.3575 51 16.5C51 17.4115 51.0433 18.175 51.1297 18.7905C51.2163 19.406 51.4308 19.8848 51.7733 20.2268C52.1152 20.5693 52.594 20.7838 53.2095 20.8703C53.825 20.9568 54.5885 21 55.5 21C57.6425 21 59.428 21.7145 60.8565 23.1435C62.2855 24.572 63 26.3575 63 28.5C63 30.6425 62.2855 32.428 60.8565 33.8565C59.428 35.2855 57.6425 36 55.5 36C54.696 36 53.944 35.8885 53.244 35.6655C52.544 35.4425 51.923 35.1463 51.381 34.7768C50.804 34.3923 50.15 34.2288 49.419 34.2863C48.6885 34.3442 48.0732 34.6233 47.5732 35.1233L35.1233 47.5732C34.6233 48.0732 34.3348 48.6598 34.2577 49.3328C34.1807 50.0058 34.3153 50.65 34.6613 51.2655C34.9923 51.8075 35.298 52.4478 35.5785 53.1863C35.8595 53.9248 36 54.696 36 55.5C36 57.6425 35.2855 59.428 33.8565 60.8565C32.428 62.2855 30.6425 63 28.5 63ZM31.725 58.725C32.575 57.875 33 56.8 33 55.5C33 55.05 32.9375 54.6125 32.8125 54.1875C32.6875 53.7625 32.5 53.35 32.25 52.95C31.477 51.7885 31.1462 50.5105 31.2577 49.116C31.3692 47.722 31.95 46.5 33 45.45L45.45 33C46.5 31.95 47.722 31.3788 49.116 31.2863C50.5105 31.1943 51.7885 31.5155 52.95 32.25C53.35 32.5 53.7625 32.6875 54.1875 32.8125C54.6125 32.9375 55.05 33 55.5 33C56.8 33 57.875 32.575 58.725 31.725C59.575 30.875 60 29.8 60 28.5C60 27.2 59.575 26.125 58.725 25.275C57.875 24.425 56.8 24 55.5 24C54.0575 24 52.8805 23.8837 51.969 23.6512C51.0575 23.4182 50.2845 22.9845 49.65 22.35C49.0155 21.7155 48.5818 20.9425 48.3488 20.031C48.1163 19.1195 48 17.9425 48 16.5C48 15.2 47.575 14.125 46.725 13.275C45.875 12.425 44.8 12 43.5 12C42.2 12 41.125 12.425 40.275 13.275C39.425 14.125 39 15.2 39 16.5C39 16.973 39.0595 17.4162 39.1785 17.8297C39.298 18.2432 39.4885 18.65 39.75 19.05C40.523 20.2115 40.8538 21.4895 40.7423 22.884C40.6308 24.278 40.05 25.5 39 26.55L26.55 39C25.5 40.05 24.278 40.6213 22.884 40.7138C21.4895 40.8058 20.2115 40.4845 19.05 39.75C18.65 39.5 18.2375 39.3125 17.8125 39.1875C17.3875 39.0625 16.95 39 16.5 39C15.2 39 14.125 39.425 13.275 40.275C12.425 41.125 12 42.2 12 43.5C12 44.8 12.425 45.8558 13.275 46.6673C14.125 47.4788 15.2 47.8845 16.5 47.8845C17.9425 47.8845 19.1195 48.02 20.031 48.291C20.9425 48.5625 21.7155 49.0155 22.35 49.65C22.9845 50.2845 23.4183 51.0768 23.6513 52.0268C23.8838 52.9768 24 54.173 24 55.6155C24 56.9155 24.425 57.9713 25.275 58.7828C26.125 59.5943 27.2 60 28.5 60C29.8 60 30.875 59.575 31.725 58.725Z" fill="#D01F25"/>
</svg>
