<svg width="75" height="75" viewBox="0 0 75 75" fill="none" xmlns="http://www.w3.org/2000/svg">
<path d="M29.1667 52.4042L52.4042 37.5L29.1667 22.5958V52.4042ZM37.5135 75C32.3281 75 27.4528 74.016 22.8875 72.0479C18.3229 70.0799 14.3521 67.409 10.975 64.0354C7.59792 60.6618 4.92465 56.6944 2.95521 52.1333C0.985069 47.5729 0 42.6997 0 37.5135C0 32.3281 0.984027 27.4528 2.95208 22.8875C4.92014 18.3229 7.59097 14.3521 10.9646 10.975C14.3382 7.59792 18.3056 4.92465 22.8667 2.95521C27.4271 0.985069 32.3003 0 37.4865 0C42.6719 0 47.5472 0.984031 52.1125 2.95209C56.6771 4.92014 60.6479 7.59097 64.025 10.9646C67.4021 14.3382 70.0753 18.3056 72.0448 22.8667C74.0149 27.4271 75 32.3003 75 37.4865C75 42.6719 74.016 47.5472 72.0479 52.1125C70.0799 56.6771 67.409 60.6479 64.0354 64.025C60.6618 67.4021 56.6944 70.0753 52.1333 72.0448C47.5729 74.0149 42.6997 75 37.5135 75ZM37.5 70.8333C46.8056 70.8333 54.6875 67.6042 61.1458 61.1458C67.6042 54.6875 70.8333 46.8056 70.8333 37.5C70.8333 28.1944 67.6042 20.3125 61.1458 13.8542C54.6875 7.39583 46.8056 4.16667 37.5 4.16667C28.1944 4.16667 20.3125 7.39583 13.8542 13.8542C7.39583 20.3125 4.16667 28.1944 4.16667 37.5C4.16667 46.8056 7.39583 54.6875 13.8542 61.1458C20.3125 67.6042 28.1944 70.8333 37.5 70.8333Z" fill="#E3E3E3"/>
</svg>
