<svg width="72" height="72" viewBox="0 0 72 72" fill="none" xmlns="http://www.w3.org/2000/svg">
<path d="M36 53.0768C39.6925 53.0768 43.233 52.394 46.6215 51.0285C50.0095 49.6635 53.046 47.754 55.731 45.3L53.85 43.419C53.377 43.892 52.83 44.3603 52.209 44.8237C51.5875 45.2873 50.919 45.719 50.2035 46.119L46.9613 40.3845V33.231H50.5387V30.9233H33.6233L28.3733 21.9233H21L22.6155 23.1345L18.1155 28.3845L19.8112 30.231L25.1535 26.769V40.269L21.7965 46.119C20.9655 45.604 20.2683 45.1435 19.7048 44.7375C19.1413 44.3315 18.623 43.892 18.15 43.419L16.269 45.3C18.954 47.754 21.9905 49.6635 25.3785 51.0285C28.767 52.394 32.3075 53.0768 36 53.0768ZM36 50.4233C34.1 50.4233 32.1567 50.2165 30.1702 49.803C28.1838 49.3895 26.154 48.6423 24.081 47.5613L27.4388 41.5965C28.9693 42.173 30.4318 42.6028 31.8263 42.8857C33.2203 43.1683 34.6115 43.3095 36 43.3095C37.4 43.3095 38.7943 43.1683 40.1828 42.8857C41.5713 42.6028 43.0308 42.173 44.5613 41.5965L47.919 47.5613C45.846 48.5808 43.8162 49.3125 41.8298 49.7565C39.8433 50.201 37.9 50.4233 36 50.4233ZM13.8465 63C12.4655 63 11.3125 62.5375 10.3875 61.6125C9.4625 60.6875 9 59.5345 9 58.1535V13.8465C9 12.4655 9.4625 11.3125 10.3875 10.3875C11.3125 9.4625 12.4655 9 13.8465 9H58.1535C59.5345 9 60.6875 9.4625 61.6125 10.3875C62.5375 11.3125 63 12.4655 63 13.8465V58.1535C63 59.5345 62.5375 60.6875 61.6125 61.6125C60.6875 62.5375 59.5345 63 58.1535 63H13.8465ZM13.8465 60H58.1535C58.6155 60 59.0388 59.8078 59.4233 59.4233C59.8078 59.0388 60 58.6155 60 58.1535V13.8465C60 13.3845 59.8078 12.9613 59.4233 12.5768C59.0388 12.1923 58.6155 12 58.1535 12H13.8465C13.3845 12 12.9613 12.1923 12.5768 12.5768C12.1923 12.9613 12 13.3845 12 13.8465V58.1535C12 58.6155 12.1923 59.0388 12.5768 59.4233C12.9613 59.8078 13.3845 60 13.8465 60Z" fill="#D01F25"/>
</svg>
