<svg width="72" height="72" viewBox="0 0 72 72" fill="none" xmlns="http://www.w3.org/2000/svg">
<path d="M9 57V30.231C9 28.85 9.4625 27.697 10.3875 26.772C11.3125 25.847 12.4655 25.3845 13.8465 25.3845H22.5V19.8465C22.5 18.4655 22.9625 17.3125 23.8875 16.3875C24.8125 15.4625 25.9655 15 27.3465 15H44.6535C46.0345 15 47.1875 15.4625 48.1125 16.3875C49.0375 17.3125 49.5 18.4655 49.5 19.8465V25.3845H58.1535C59.5345 25.3845 60.6875 25.847 61.6125 26.772C62.5375 27.697 63 28.85 63 30.231V57H9ZM22.1535 42.6923V45.6923H19.1535V42.6923H12V54H60V42.6923H52.8465V45.6923H49.8465V42.6923H22.1535ZM12 30.231V39.6923H19.1535V36.6923H22.1535V39.6923H49.8465V36.6923H52.8465V39.6923H60V30.231C60 29.7695 59.8078 29.3463 59.4233 28.9613C59.0388 28.5768 58.6155 28.3845 58.1535 28.3845H13.8465C13.3845 28.3845 12.9613 28.5768 12.5768 28.9613C12.1923 29.3463 12 29.7695 12 30.231ZM25.5 25.3845H46.5V19.8465C46.5 19.3845 46.3078 18.9613 45.9233 18.5768C45.5387 18.1923 45.1155 18 44.6535 18H27.3465C26.8845 18 26.4613 18.1923 26.0768 18.5768C25.6923 18.9613 25.5 19.3845 25.5 19.8465V25.3845Z" fill="#D01F25"/>
</svg>
