<svg width="50" height="50" viewBox="0 0 50 50" fill="none" xmlns="http://www.w3.org/2000/svg">
<path d="M27.8934 36.2099C27.0333 35.3498 26.6033 34.3108 26.6033 33.0927C26.6033 31.875 27.0333 30.8361 27.8934 29.976C28.7534 29.116 29.7923 28.6859 31.01 28.6859C32.2281 28.6859 33.2671 29.116 34.1272 29.976C34.9873 30.8361 35.4173 31.875 35.4173 33.0927C35.4173 34.3108 34.9873 35.3498 34.1272 36.2099C33.2671 37.07 32.2281 37.5 31.01 37.5C29.7923 37.5 28.7534 37.07 27.8934 36.2099ZM11.6996 43.75C10.7406 43.75 9.93989 43.4288 9.29753 42.7865C8.65516 42.1441 8.33398 41.3434 8.33398 40.3844V13.7823C8.33398 12.8233 8.65516 12.0226 9.29753 11.3802C9.93989 10.7378 10.7406 10.4167 11.6996 10.4167H15.385V5.76927H17.6288V10.4167H32.5329V5.76927H34.6163V10.4167H38.3017C39.2607 10.4167 40.0614 10.7378 40.7038 11.3802C41.3461 12.0226 41.6673 12.8233 41.6673 13.7823V40.3844C41.6673 41.3434 41.3461 42.1441 40.7038 42.7865C40.0614 43.4288 39.2607 43.75 38.3017 43.75H11.6996ZM11.6996 41.6667H38.3017C38.6225 41.6667 38.9164 41.5332 39.1835 41.2661C39.4505 40.9991 39.584 40.7052 39.584 40.3844V22.1156H10.4173V40.3844C10.4173 40.7052 10.5508 40.9991 10.8178 41.2661C11.0849 41.5332 11.3788 41.6667 11.6996 41.6667ZM10.4173 20.0318H39.584V13.7823C39.584 13.4615 39.4505 13.1675 39.1835 12.9005C38.9164 12.6335 38.6225 12.5 38.3017 12.5H11.6996C11.3788 12.5 11.0849 12.6335 10.8178 12.9005C10.5508 13.1675 10.4173 13.4615 10.4173 13.7823V20.0318Z" fill="white"/>
</svg>
