<svg width="40" height="40" viewBox="0 0 40 40" fill="none" xmlns="http://www.w3.org/2000/svg">
<path d="M35.3749 10.3818H20.7974C20.3141 10.3818 19.9224 10.7736 19.9224 11.2568V32.9952C19.9224 33.4784 20.3141 33.8702 20.7974 33.8702H35.3749C35.8581 33.8702 36.2499 33.4784 36.2499 32.9952V11.2568C36.2499 10.7736 35.8581 10.3818 35.3749 10.3818Z" stroke="white" stroke-width="2" stroke-linejoin="round"/>
<path d="M25.2401 6.18101C25.1034 6.18101 24.9676 6.20935 24.8417 6.26268L11.6917 11.8493C11.4426 11.9551 11.2456 12.1555 11.1442 12.4065C11.0428 12.6575 11.0452 12.9385 11.1509 13.1877L11.1517 13.1893L19.5242 32.9302C19.6426 33.206 19.8767 33.416 20.1642 33.5027C20.0094 33.3198 19.9241 33.0881 19.9234 32.8485V11.4027C19.9227 11.2689 19.9485 11.1363 19.9992 11.0125C20.0499 10.8887 20.1245 10.7761 20.2188 10.6811C20.3131 10.5862 20.4252 10.5109 20.5487 10.4594C20.6722 10.4079 20.8046 10.3812 20.9384 10.381H27.6984L26.1817 6.80435C26.1041 6.61897 25.9734 6.46075 25.8059 6.34966C25.6385 6.23857 25.4418 6.17959 25.2409 6.18018L25.2401 6.18101Z" stroke="white" stroke-width="2" stroke-linejoin="round"/>
<path d="M23.1899 23.4432H28.0862H32.9824M25.3099 20.0874H30.6208C30.9449 20.0874 31.0041 20.3641 30.8008 20.5899C30.0016 21.4741 28.9224 21.8715 27.9816 22.0915C27.7066 22.1557 27.7583 22.3107 27.8791 22.4374C28.1466 22.7165 28.4433 23.1065 28.4433 23.8057V26.2482C28.4433 26.8415 28.0016 27.1899 27.4708 27.1899C26.9966 27.1899 26.5874 27.0899 26.0474 26.814M28.0883 17.0624V18.174M23.4408 20.0265V18.609C23.4408 18.3682 23.6358 18.174 23.8758 18.174H32.2991C32.5399 18.174 32.7341 18.369 32.7341 18.609V20.0107M14.8724 6.12988C14.6016 6.12988 14.3416 6.23738 14.1508 6.42905L4.04993 16.5399C3.95508 16.6344 3.87977 16.7466 3.8283 16.8702C3.77684 16.9938 3.75023 17.1263 3.75 17.2602C3.74977 17.3941 3.77592 17.5267 3.82695 17.6505C3.87799 17.7742 3.95291 17.8867 4.04743 17.9815L4.04993 17.984L19.2016 33.1491C19.4141 33.3599 19.7083 33.4665 20.0066 33.4399C19.7906 33.333 19.6196 33.1528 19.5241 32.9316L11.1508 13.189C11.098 13.0661 11.0699 12.934 11.0683 12.8002C11.0667 12.6664 11.0914 12.5337 11.1412 12.4095C11.191 12.2853 11.2648 12.1722 11.3584 12.0766C11.452 11.981 11.5635 11.9048 11.6866 11.8524L11.6908 11.8507L18.2341 9.07238L15.5933 6.42988C15.4986 6.33489 15.3862 6.25956 15.2623 6.20822C15.1385 6.15687 15.0057 6.13053 14.8716 6.13072L14.8724 6.12988Z" stroke="white" stroke-width="1.5" stroke-linejoin="round"/>
</svg>
