<svg width="40" height="40" viewBox="0 0 40 40" fill="none" xmlns="http://www.w3.org/2000/svg">
<path d="M23.6392 30H20L12.5 25.8667L3.34082 29.235L5.84249 34.1884L11.7358 31.7275C17.2497 35.0203 20.6058 36.6667 21.8042 36.6667C23.0025 36.6667 27.9567 34.4445 36.6667 30" stroke="white" stroke-width="2" stroke-linecap="round" stroke-linejoin="round"/>
<path d="M24.1598 22.4903V18.5986C25.0765 18.2178 26.279 17.6611 26.9698 16.9703C28.0187 15.9214 28.733 14.585 29.0224 13.1301C29.3118 11.6753 29.1633 10.1673 28.5956 8.79685C28.0279 7.4264 27.0666 6.25507 25.8333 5.43096C24.5999 4.60686 23.1499 4.16699 21.6665 4.16699C20.1832 4.16699 18.7331 4.60686 17.4997 5.43096C16.2664 6.25507 15.3051 7.4264 14.7374 8.79685C14.1698 10.1673 14.0212 11.6753 14.3106 13.1301C14.6 14.585 15.3143 15.9214 16.3632 16.9703C17.054 17.6611 18.2498 18.2178 19.1665 18.5978C19.1715 18.8772 19.1715 20.1744 19.1665 22.4894L24.1598 22.4903Z" stroke="white" stroke-width="2" stroke-linejoin="round"/>
<path d="M9.99984 17.5002L10.8332 16.6668M33.3332 17.5002L32.4998 16.6668M12.4998 4.16683L11.6665 3.3335M30.8332 4.16683L31.6665 3.3335M34.1665 10.0002H33.3332M9.99984 10.0002H9.1665" stroke="white" stroke-width="2" stroke-linecap="round"/>
</svg>
