<svg width="40" height="40" viewBox="0 0 40 40" fill="none" xmlns="http://www.w3.org/2000/svg">
<path d="M28.9515 33.0448L33.6848 28.3848L32.6415 27.3398L28.9515 30.9782L27.3598 29.3532L26.3148 30.4065L28.9515 33.0448ZM11.2832 14.5515H28.7198V12.8848H11.2815L11.2832 14.5515ZM29.9998 36.8598C28.1432 36.8598 26.5682 36.2126 25.2748 34.9182C23.9804 33.6248 23.3332 32.0498 23.3332 30.1932C23.3332 28.3365 23.9804 26.7609 25.2748 25.4665C26.5693 24.1721 28.1443 23.5254 29.9998 23.5265C31.8554 23.5276 33.4309 24.1743 34.7265 25.4665C36.0221 26.7587 36.6687 28.3343 36.6665 30.1932C36.6665 32.0487 36.0198 33.6237 34.7265 34.9182C33.4309 36.2126 31.8554 36.8598 29.9998 36.8598ZM6.6665 34.6148V9.35984C6.6665 8.61317 6.92873 7.97762 7.45317 7.45317C7.97762 6.92873 8.61317 6.6665 9.35984 6.6665H30.6415C31.3859 6.6665 32.0209 6.92873 32.5465 7.45317C33.0709 7.97762 33.3332 8.61317 33.3332 9.35984V19.2665C33.0621 19.1665 32.7932 19.0809 32.5265 19.0098C32.2587 18.9387 31.9721 18.8832 31.6665 18.8432V9.35984C31.6665 9.10317 31.5598 8.86761 31.3465 8.65317C31.1332 8.43873 30.8976 8.33206 30.6398 8.33317H9.35984C9.10317 8.33317 8.86761 8.43984 8.65317 8.65317C8.43873 8.8665 8.33206 9.10206 8.33317 9.35984V31.7498H18.9065C18.9821 32.2054 19.0798 32.6509 19.1998 33.0865C19.3209 33.5221 19.4893 33.9376 19.7048 34.3332L19.6482 34.3898L17.7565 33.0132L15.5132 34.6148L13.2698 33.0132L11.0265 34.6148L8.7815 33.0132L6.6665 34.6148ZM11.2832 27.1148H19.1315C19.1937 26.8093 19.2704 26.5232 19.3615 26.2565C19.4526 25.9898 19.5593 25.7204 19.6815 25.4482H11.2832V27.1148ZM11.2832 20.8332H23.4665C24.0109 20.4032 24.5943 20.0448 25.2165 19.7582C25.8387 19.4704 26.5037 19.2732 27.2115 19.1665H11.2815L11.2832 20.8332Z" fill="white"/>
</svg>
