<svg width="40" height="40" viewBox="0 0 40 40" fill="none" xmlns="http://www.w3.org/2000/svg">
<g clip-path="url(#clip0_406_1732)">
<path d="M3.12354 29.375C3.12354 30.5353 3.58447 31.6481 4.40494 32.4686C5.22541 33.2891 6.33821 33.75 7.49854 33.75C8.65886 33.75 9.77166 33.2891 10.5921 32.4686C11.4126 31.6481 11.8735 30.5353 11.8735 29.375C11.8735 28.2147 11.4126 27.1019 10.5921 26.2814C9.77166 25.4609 8.65886 25 7.49854 25C6.33821 25 5.22541 25.4609 4.40494 26.2814C3.58447 27.1019 3.12354 28.2147 3.12354 29.375Z" stroke="white" stroke-width="1.5" stroke-linecap="round" stroke-linejoin="round"/>
<path d="M13.7485 38.75C13.1444 37.6172 12.2437 36.6699 11.1429 36.0094C10.042 35.3489 8.78235 35 7.49854 35C6.21472 35 4.95505 35.3489 3.85419 36.0094C2.75333 36.6699 1.85268 37.6172 1.24854 38.75M28.1235 29.375C28.1235 29.9495 28.2367 30.5184 28.4566 31.0492C28.6764 31.58 28.9987 32.0623 29.4049 32.4686C29.8112 32.8748 30.2935 33.1971 30.8243 33.417C31.3551 33.6368 31.924 33.75 32.4985 33.75C33.0731 33.75 33.642 33.6368 34.1728 33.417C34.7036 33.1971 35.1859 32.8748 35.5921 32.4686C35.9984 32.0623 36.3206 31.58 36.5405 31.0492C36.7604 30.5184 36.8735 29.9495 36.8735 29.375C36.8735 28.2147 36.4126 27.1019 35.5921 26.2814C34.7717 25.4609 33.6589 25 32.4985 25C31.3382 25 30.2254 25.4609 29.4049 26.2814C28.5845 27.1019 28.1235 28.2147 28.1235 29.375Z" stroke="white" stroke-width="1.5" stroke-linecap="round" stroke-linejoin="round"/>
<path d="M38.7487 38.75C38.1446 37.6172 37.2439 36.6699 36.1431 36.0094C35.0422 35.3489 33.7826 35 32.4987 35C31.2149 35 29.9553 35.3489 28.8544 36.0094C27.7535 36.6699 26.8529 37.6172 26.2487 38.75M25.4137 13.75C24.7456 12.966 23.9153 12.3364 22.9801 11.9046C22.0449 11.4729 21.0271 11.2492 19.9971 11.2492C18.967 11.2492 17.9492 11.4729 17.014 11.9046C16.0788 12.3364 15.2485 12.966 14.5804 13.75M15.0837 32.845C18.2759 34.0615 21.8057 34.0508 24.9904 32.815M10.5804 10C9.21237 11.2817 8.12192 12.8305 7.37656 14.5506C6.63119 16.2706 6.24677 18.1254 6.24707 20C6.24707 20.4217 6.27207 20.8333 6.3104 21.25M33.6854 21.25C33.7221 20.8367 33.7487 20.4167 33.7487 20C33.749 18.1254 33.3646 16.2706 32.6193 14.5506C31.8739 12.8305 30.7834 11.2817 29.4154 10M15.6237 5.625C15.6237 6.19953 15.7369 6.76844 15.9568 7.29924C16.1766 7.83004 16.4989 8.31234 16.9051 8.71859C17.3114 9.12485 17.7937 9.44711 18.3245 9.66697C18.8553 9.88684 19.4242 10 19.9987 10C20.5733 10 21.1422 9.88684 21.673 9.66697C22.2038 9.44711 22.6861 9.12485 23.0923 8.71859C23.4986 8.31234 23.8208 7.83004 24.0407 7.29924C24.2606 6.76844 24.3737 6.19953 24.3737 5.625C24.3737 4.46468 23.9128 3.35188 23.0923 2.53141C22.2719 1.71094 21.1591 1.25 19.9987 1.25C18.8384 1.25 17.7256 1.71094 16.9051 2.53141C16.0847 3.35188 15.6237 4.46468 15.6237 5.625Z" stroke="white" stroke-width="1.5" stroke-linecap="round" stroke-linejoin="round"/>
</g>
<defs>
<clipPath id="clip0_406_1732">
<rect width="40" height="40" fill="white"/>
</clipPath>
</defs>
</svg>
